# xmcd
#
# Track frame offsets:
#        150
#        23542
#        48220
#
# Disc length: 953 seconds
#
# Revision: 0
# Processed by: cddbd v1.5.1PL0 Copyright (c) Steve Scherf et al.
# Submitted via: ExactAudioCopy v0.95a5
#
DISCID=1503b703
DTITLE=Yoshihiro Kai - Tonight I need your kiss
DYEAR=1998
DGENRE=R&B
TTITLE0=Tonight I need your kiss
TTITLE1=Tonight I need your kiss -Summer Groove Mix-
TTITLE2=Tonight I need your kiss -TV Mix-
EXTD=
EXTT0=
EXTT1=
EXTT2=
PLAYORDER=
